<?xml version="1.0" standalone="no"?>
<!DOCTYPE svg PUBLIC "-//W3C//DTD SVG 1.0//EN" "http://www.w3.org/TR/2001/REC-SVG-20010904/DTD/svg10.dtd">
<svg xmlns="http://www.w3.org/2000/svg" xmlns:xlink="http://www.w3.org/1999/xlink" id="body_1"
    width="34" height="24">

    <g transform="matrix(1 0 0 1 0 0)">
        <path
            d="M0.5 4C 0.5 2.0670035 2.0670035 0.5 4 0.5L4 0.5L30 0.5C 31.932997 0.5 33.5 2.0670035 33.5 4L33.5 4L33.5 20C 33.5 21.932997 31.932997 23.5 30 23.5L30 23.5L4 23.5C 2.0670035 23.5 0.5 21.932997 0.5 20L0.5 20L0.5 4z"
            stroke="#E2E2E2" stroke-width="1" fill="#FFFFFF" fill-rule="nonzero" />
        <path
            d="M19.2576 11.7058C 19.2576 15.4092 16.2898 18.4115 12.6288 18.4115C 8.96782 18.4115 6 15.4092 6 11.7058C 6 8.00227 8.96782 5 12.6288 5C 16.2898 5 19.2576 8.00227 19.2576 11.7058z"
            stroke="none" fill="#ED0006" fill-rule="nonzero" />
        <path
            d="M27.8572 11.7058C 27.8572 15.4092 24.8894 18.4115 21.2284 18.4115C 17.5674 18.4115 14.5996 15.4092 14.5996 11.7058C 14.5996 8.00227 17.5674 5 21.2284 5C 24.8894 5 27.8572 8.00227 27.8572 11.7058z"
            stroke="none" fill="#0099DF" fill-rule="nonzero" />
        <path
            d="M16.9286 6.60205C 18.3539 7.83201 19.2576 9.66217 19.2576 11.7059C 19.2576 13.7496 18.3539 15.5797 16.9286 16.8097C 15.5034 15.5797 14.5996 13.7496 14.5996 11.7059C 14.5996 9.66217 15.5034 7.83201 16.9286 6.60205z"
            stroke="none" fill="#6C6BBD" fill-rule="nonzero" />
    </g>
</svg>