<svg xmlns="http://www.w3.org/2000/svg" width="34" height="24" viewBox="0 0 34 24" fill="none">
<rect x="0.5" y="0.5" width="33" height="23" rx="3.5" fill="#5A78FF" stroke="#D9D9D9"/>
<g clip-path="url(#clip0_4312_3181)">
<path d="M16.2684 18.9951C15.7896 18.9951 15.3579 18.7069 15.1745 18.2646L11.0908 8.40621C10.8409 7.80301 11.1273 7.11147 11.7305 6.86155L16.0078 5.09004C16.2975 4.97001 16.6229 4.96999 16.9126 5.08997C17.2022 5.20995 17.4324 5.4401 17.5523 5.72978L21.636 15.5886C21.8855 16.1917 21.5991 16.8828 20.9963 17.1327L16.719 18.905C16.5762 18.9643 16.423 18.995 16.2684 18.9951ZM16.4603 5.63604C16.3886 5.63616 16.3177 5.65043 16.2515 5.67804L11.974 7.44955C11.8403 7.50493 11.7341 7.61117 11.6787 7.74489C11.6233 7.8786 11.6234 8.02884 11.6788 8.16253L15.7625 18.0216C15.8781 18.2998 16.197 18.4319 16.4755 18.317L20.7528 16.5443C20.8865 16.4889 20.9927 16.3826 21.0481 16.2489C21.1035 16.1152 21.1035 15.965 21.048 15.8313L16.9643 5.97326C16.8798 5.76942 16.681 5.63641 16.4603 5.63604Z" fill="white"/>
<path style="mix-blend-mode:multiply" opacity="0.5" d="M17.8219 6.37947L17.2339 6.62305L18.8508 10.5266L19.4388 10.283L17.8219 6.37947Z" fill="url(#paint0_linear_4312_3181)"/>
<path style="mix-blend-mode:multiply" opacity="0.5" d="M20.7762 15.1772L21.3643 14.9336L19.534 10.5149L18.9459 10.7585L20.7762 15.1772Z" fill="url(#paint1_linear_4312_3181)"/>
<path d="M20.0336 12.2479C18.8104 12.7552 17.789 13.4544 17.1202 14.2972L15.396 10.1329C16.1825 9.21914 17.1836 8.51497 18.3094 8.08363C19.5327 7.57638 20.7685 7.33087 21.8185 7.47392L23.5432 11.638C22.3409 11.5475 21.1349 11.757 20.0336 12.2479Z" fill="white"/>
<g style="mix-blend-mode:multiply" opacity="0.25">
<path opacity="0.9" d="M20.0336 12.2479C18.8104 12.7552 17.789 13.4544 17.1202 14.2972L15.396 10.1329C16.1825 9.21914 17.1836 8.51497 18.3094 8.08363C19.5327 7.57638 20.7685 7.33087 21.8185 7.47392L23.5432 11.638C22.3409 11.5475 21.1349 11.757 20.0336 12.2479Z" fill="url(#paint2_linear_4312_3181)"/>
<path opacity="0.7" d="M20.0336 12.2479C18.8104 12.7552 17.789 13.4544 17.1202 14.2972L15.396 10.1329C16.1825 9.21914 17.1836 8.51497 18.3094 8.08363C19.5327 7.57638 20.7685 7.33087 21.8185 7.47392L23.5432 11.638C22.3409 11.5475 21.1349 11.757 20.0336 12.2479Z" fill="url(#paint3_linear_4312_3181)"/>
</g>
<path d="M20.5955 13.5179C19.2714 13.5179 18.0593 13.7737 17.1199 14.296V10.0854C18.1961 9.54232 19.3904 9.27495 20.5955 9.30731C21.9196 9.30731 23.1555 9.55282 24.071 10.0864V14.297C22.9949 13.7534 21.8007 13.4857 20.5955 13.5179Z" fill="white"/>
</g>
<defs>
<linearGradient id="paint0_linear_4312_3181" x1="18.7494" y1="9.47109" x2="18.4854" y2="6.39098" gradientUnits="userSpaceOnUse">
<stop stop-color="#504678"/>
<stop offset="0.302" stop-color="#504678" stop-opacity="0.616"/>
<stop offset="0.608" stop-color="#504678" stop-opacity="0.283"/>
<stop offset="0.852" stop-color="#504678" stop-opacity="0.076"/>
<stop offset="1" stop-color="#504678" stop-opacity="0"/>
</linearGradient>
<linearGradient id="paint1_linear_4312_3181" x1="19.6866" y1="11.694" x2="19.8522" y2="15.1453" gradientUnits="userSpaceOnUse">
<stop stop-color="#504678"/>
<stop offset="0.302" stop-color="#504678" stop-opacity="0.616"/>
<stop offset="0.608" stop-color="#504678" stop-opacity="0.283"/>
<stop offset="0.852" stop-color="#504678" stop-opacity="0.076"/>
<stop offset="1" stop-color="#504678" stop-opacity="0"/>
</linearGradient>
<linearGradient id="paint2_linear_4312_3181" x1="16.5123" y1="11.987" x2="19.7433" y2="9.78439" gradientUnits="userSpaceOnUse">
<stop stop-color="#504678"/>
<stop offset="0.179" stop-color="#504678" stop-opacity="0.872"/>
<stop offset="0.526" stop-color="#504678" stop-opacity="0.536"/>
<stop offset="1" stop-color="#504678" stop-opacity="0"/>
</linearGradient>
<linearGradient id="paint3_linear_4312_3181" x1="19.2842" y1="9.83386" x2="19.1408" y2="8.68761" gradientUnits="userSpaceOnUse">
<stop stop-color="#504678"/>
<stop offset="0.643" stop-color="#504678" stop-opacity="0.332"/>
<stop offset="1" stop-color="#504678" stop-opacity="0"/>
</linearGradient>
<clipPath id="clip0_4312_3181">
<rect width="13.1884" height="14" fill="white" transform="translate(11 5)"/>
</clipPath>
</defs>
</svg>